<svg width="32" height="24" viewBox="0 0 32 24" fill="none" xmlns="http://www.w3.org/2000/svg">
<path d="M0.667993 1.94725C5.05987 5.66669 12.7662 12.2103 15.0312 14.2506C15.3353 14.526 15.6614 14.666 16 14.666C16.3379 14.666 16.6634 14.5273 16.9668 14.2533C19.2337 12.2109 26.9401 5.66669 31.332 1.94725C31.6055 1.71612 31.6472 1.30987 31.4258 1.02731C30.914 0.374375 30.151 0 29.3333 0H2.66668C1.84899 0 1.08593 0.374375 0.574244 1.02738C0.352869 1.30988 0.394556 1.71612 0.667993 1.94725Z" fill="#CD06FF"/>
<path d="M31.6133 3.96279C31.377 3.85279 31.099 3.89116 30.9024 4.05916C26.0319 8.18804 19.8158 13.4804 17.86 15.2427C16.7623 16.2336 15.2389 16.2336 14.1386 15.2414C12.054 13.3632 5.0735 7.42891 1.09763 4.0591C0.899688 3.8911 0.621063 3.85404 0.386687 3.96273C0.151062 4.07216 0 4.30785 0 4.5676V21.3332C0 22.804 1.19594 23.9999 2.66669 23.9999H29.3334C30.8041 23.9999 32 22.804 32 21.3332V4.5676C32 4.30785 31.8489 4.07154 31.6133 3.96279Z" fill="#CD06FF"/>
</svg>
